<svg xmlns="http://www.w3.org/2000/svg" width="1024" height="256" viewBox="0 0 1024 256"><defs><linearGradient id="r" x1="0" y1="0" x2="0" y2="1"><stop stop-color="#e5e7eb"/><stop offset="1" stop-color="#64748b"/></linearGradient><linearGradient id="s" x1="0" y1="0" x2="1" y2="0"><stop stop-color="#22d3ee"/><stop offset="1" stop-color="#818cf8"/></linearGradient><g id="b"><ellipse cx="128" cy="233" rx="46" ry="7" fill="#020617" opacity=".32"/><path d="M101 106Q128 91 155 105L167 181Q151 207 128 221Q105 207 89 181Z" fill="url(#r)" stroke="#0f172a" stroke-width="5"/><path d="M96 143Q128 153 161 142L158 157Q128 166 98 157Z" fill="url(#s)"/><circle cx="128" cy="77" r="29" fill="#cbd5e1" stroke="#0f172a" stroke-width="5"/></g></defs><g><use href="#b"/><path d="M108 116L91 143M150 115l35 31M111 202l-16 30m50-30 16 30" stroke="#cbd5e1" stroke-width="13" stroke-linecap="round"/></g><g transform="translate(256 -1)"><use href="#b"/><path d="M108 116L103 132M150 115l26 6M111 202l-17 30m51-30 17 30" stroke="#cbd5e1" stroke-width="13" stroke-linecap="round"/><path d="M166 88Q210 128 168 171" fill="none" stroke="#7dd3fc" stroke-width="6" opacity=".75"/></g><g transform="translate(512 -2)"><use href="#b"/><path d="M108 116L110 125M150 115l22 1M111 202l-18 30m52-30 18 30" stroke="#cbd5e1" stroke-width="13" stroke-linecap="round"/><path d="M165 79Q222 128 166 181" fill="none" stroke="#bae6fd" stroke-width="8" opacity=".9"/><path d="M177 91Q212 128 178 169" fill="none" stroke="#e0f2fe" stroke-width="3"/></g><g transform="translate(768 0)"><use href="#b"/><path d="M108 116L91 143M150 115l35 31M111 202l-16 30m50-30 16 30" stroke="#cbd5e1" stroke-width="13" stroke-linecap="round"/></g></svg>