<svg xmlns="http://www.w3.org/2000/svg" width="1000" height="560" viewBox="0 0 1000 560"><defs><linearGradient id="sky" x1="0" y1="0" x2="0" y2="1"><stop stop-color="#070b13"/><stop offset=".56" stop-color="#111827"/><stop offset="1" stop-color="#1b1b24"/></linearGradient><radialGradient id="moon"><stop stop-color="#d9edf2" stop-opacity=".8"/><stop offset=".4" stop-color="#7bb9c6" stop-opacity=".3"/><stop offset="1" stop-color="#1f4250" stop-opacity="0"/></radialGradient><linearGradient id="rift" x1="0" y1="0" x2="1" y2="1"><stop stop-color="#2b1439" stop-opacity=".1"/><stop offset=".5" stop-color="#7c3f72" stop-opacity=".25"/><stop offset="1" stop-color="#160d1e" stop-opacity="0"/></linearGradient></defs><rect width="1000" height="560" fill="url(#sky)"/><circle cx="760" cy="118" r="98" fill="url(#moon)"/><circle cx="760" cy="118" r="31" fill="#dfe8e3" opacity=".32"/><path d="M0 225 C160 180 250 245 400 207 S720 170 1000 220 L1000 350 L0 350Z" fill="#263141" opacity=".25"/><path d="M85 118 C210 72 325 94 445 141" fill="none" stroke="#607285" stroke-opacity=".13" stroke-width="3"/><path d="M520 73 C650 130 760 62 938 108" fill="none" stroke="#8997a8" stroke-opacity=".1" stroke-width="2"/><path d="M450 0 L584 0 L548 154 L500 250 L472 130Z" fill="url(#rift)"/><g fill="#c9d8df" opacity=".18"><circle cx="118" cy="74" r="1.5"/><circle cx="246" cy="128" r="1.2"/><circle cx="338" cy="63" r="1.4"/><circle cx="615" cy="155" r="1.3"/><circle cx="876" cy="60" r="1.2"/><circle cx="935" cy="170" r="1.4"/></g></svg>